<?xml version="1.0" encoding="utf-8"?>
<!-- Generator: Adobe Illustrator 27.7.0, SVG Export Plug-In . SVG Version: 6.00 Build 0)  -->
<svg version="1.1" id="Layer_1" xmlns="http://www.w3.org/2000/svg" xmlns:xlink="http://www.w3.org/1999/xlink" x="0px" y="0px"
	 width="31.875px" height="24px" viewBox="0 0 31.875 24" enable-background="new 0 0 31.875 24" xml:space="preserve">
<g id="Layer_1_1_">
	<g>
		<g>
			
				<linearGradient id="SVGID_1_" gradientUnits="userSpaceOnUse" x1="9.6456" y1="715.7618" x2="16.6599" y2="708.157" gradientTransform="matrix(1 0 0 1 -8.3599 -699.3351)">
				<stop  offset="0" style="stop-color:#FF0097"/>
				<stop  offset="1" style="stop-color:#FFC516"/>
			</linearGradient>
			<path fill="url(#SVGID_1_)" d="M8.506,8.744C8.533,8.701,8.56,8.658,8.583,8.613c0.014-0.024,0.029-0.047,0.042-0.072
				c0.014-0.025,0.029-0.048,0.043-0.073C8.681,8.444,8.696,8.42,8.709,8.396c0.014-0.024,0.03-0.048,0.043-0.072
				C8.766,8.3,8.78,8.276,8.793,8.251c0.015-0.023,0.029-0.047,0.042-0.072C8.85,8.156,8.865,8.132,8.878,8.108
				C8.893,8.085,8.907,8.06,8.921,8.036c0.014-0.024,0.029-0.048,0.042-0.072c0.015-0.024,0.029-0.047,0.042-0.072
				C9.02,7.869,9.034,7.845,9.047,7.821C9.062,7.798,9.076,7.774,9.089,7.75c0.015-0.024,0.028-0.047,0.043-0.071
				C9.148,7.655,9.16,7.632,9.174,7.608C9.189,7.585,9.203,7.56,9.217,7.536c0.015-0.023,0.028-0.048,0.042-0.071
				c0.015-0.023,0.028-0.048,0.042-0.071c0.015-0.023,0.028-0.047,0.042-0.071C9.359,7.3,9.372,7.275,9.387,7.251
				c0.03-0.045,0.055-0.091,0.082-0.136c0.029-0.047,0.059-0.093,0.084-0.14c0.015-0.026,0.033-0.052,0.047-0.078
				c0.014-0.024,0.03-0.048,0.044-0.073C9.657,6.8,9.674,6.776,9.687,6.752c0.014-0.024,0.03-0.048,0.044-0.073
				c0.014-0.024,0.031-0.048,0.044-0.072c0.015-0.024,0.031-0.048,0.044-0.073C9.833,6.51,9.849,6.486,9.863,6.462
				c0.015-0.024,0.03-0.048,0.044-0.072c0.015-0.025,0.03-0.049,0.044-0.073c0.015-0.024,0.03-0.048,0.044-0.072
				c0.015-0.024,0.03-0.048,0.043-0.072c0.015-0.023,0.03-0.048,0.044-0.072c0.015-0.024,0.03-0.047,0.044-0.072
				c0.015-0.024,0.03-0.047,0.044-0.072c0.013-0.02,0.026-0.041,0.038-0.062c0.018-0.028,0.035-0.058,0.053-0.086
				c0.015-0.025,0.031-0.05,0.045-0.075c0.016-0.024,0.03-0.049,0.045-0.073c0.015-0.024,0.03-0.049,0.045-0.074
				c0.015-0.024,0.03-0.049,0.045-0.074c0.016-0.024,0.031-0.049,0.045-0.073c0.019-0.029,0.036-0.059,0.053-0.087
				c0.025-0.039,0.049-0.077,0.071-0.116c0.015-0.025,0.031-0.05,0.046-0.075c0.746-1.201,0.595-2.799-0.451-3.839
				c-1.217-1.21-3.184-1.204-4.395,0.012C5.219,1.931,4.919,2.706,4.908,3.484c-0.001,0.013,0,0.027-0.001,0.04
				c0,0.004,0,0.008,0,0.011c0,0.014,0,0.028-0.001,0.043C4.905,3.609,4.905,3.641,4.904,3.672C4.903,3.704,4.903,3.735,4.903,3.766
				C4.902,3.798,4.901,3.829,4.901,3.86C4.9,3.891,4.9,3.923,4.899,3.954C4.898,3.985,4.897,4.017,4.897,4.047
				C4.896,4.079,4.895,4.11,4.895,4.141C4.894,4.172,4.893,4.204,4.893,4.234c-0.001,0.04-0.002,0.081-0.002,0.122
				c-0.002,0.028,0,0.057-0.001,0.085C4.888,4.474,4.888,4.507,4.887,4.54C4.885,4.572,4.886,4.606,4.885,4.638
				C4.883,4.671,4.883,4.703,4.882,4.736C4.88,4.769,4.88,4.801,4.88,4.834C4.878,4.866,4.878,4.9,4.877,4.932
				C4.876,4.965,4.875,4.998,4.875,5.03C4.873,5.063,4.872,5.095,4.872,5.128C4.871,5.16,4.87,5.193,4.869,5.226
				C4.868,5.258,4.867,5.29,4.867,5.323C4.865,5.356,4.864,5.388,4.864,5.42C4.863,5.453,4.862,5.486,4.862,5.518
				C4.861,5.551,4.859,5.583,4.859,5.615C4.858,5.648,4.856,5.68,4.856,5.712C4.855,5.745,4.853,5.777,4.853,5.809
				C4.852,5.842,4.85,5.874,4.85,5.906C4.849,5.939,4.847,5.971,4.847,6.003C4.847,6.024,4.845,6.046,4.845,6.067
				c0,0.006,0,0.01,0,0.015c0,0.005,0,0.009,0,0.013C4.842,6.117,4.843,6.139,4.842,6.162C4.84,6.194,4.84,6.227,4.839,6.261
				C4.837,6.293,4.837,6.326,4.835,6.359C4.833,6.391,4.833,6.424,4.832,6.457C4.83,6.49,4.83,6.522,4.829,6.555
				C4.826,6.588,4.826,6.62,4.825,6.653C4.823,6.686,4.822,6.719,4.821,6.751C4.819,6.783,4.818,6.816,4.818,6.849
				C4.816,6.882,4.814,6.914,4.813,6.947C4.812,6.979,4.81,7.012,4.81,7.044C4.808,7.076,4.806,7.109,4.806,7.141
				C4.804,7.174,4.802,7.207,4.802,7.239C4.8,7.271,4.798,7.302,4.798,7.336C4.796,7.367,4.793,7.399,4.793,7.432
				C4.79,7.463,4.79,7.496,4.789,7.528C4.786,7.561,4.786,7.594,4.785,7.627C4.782,7.66,4.781,7.692,4.78,7.726
				C4.777,7.757,4.776,7.791,4.775,7.823C4.773,7.855,4.772,7.889,4.771,7.921C4.768,7.953,4.767,7.986,4.766,8.018
				C4.763,8.051,4.761,8.083,4.761,8.116C4.758,8.148,4.756,8.18,4.756,8.212C4.753,8.245,4.751,8.277,4.75,8.309
				C4.748,8.341,4.745,8.373,4.745,8.406c0,0.006-0.001,0.014-0.001,0.022C4.741,8.451,4.741,8.475,4.74,8.498
				c0,0.001,0,0.002,0,0.004c0,0.008-0.001,0.016-0.001,0.024C4.735,8.558,4.734,8.59,4.732,8.624
				C4.729,8.655,4.728,8.688,4.727,8.721C4.724,8.752,4.722,8.785,4.72,8.817C4.717,8.85,4.716,8.882,4.715,8.914
				C4.712,8.947,4.709,8.978,4.708,9.011C4.705,9.043,4.702,9.074,4.701,9.107C4.699,9.138,4.695,9.17,4.694,9.202
				C4.693,9.215,4.692,9.229,4.691,9.242C4.687,9.274,4.686,9.307,4.684,9.339C4.68,9.371,4.679,9.404,4.677,9.437
				C4.673,9.468,4.671,9.5,4.67,9.532C4.666,9.564,4.664,9.596,4.662,9.628C4.658,9.659,4.655,9.691,4.654,9.723
				C4.651,9.754,4.647,9.785,4.646,9.817C4.644,9.836,4.642,9.853,4.641,9.871C4.637,9.902,4.635,9.935,4.633,9.967
				c-0.004,0.032-0.007,0.063-0.009,0.095c-0.004,0.032-0.007,0.064-0.008,0.095c-0.004,0.032-0.007,0.063-0.009,0.094
				c-0.004,0.031-0.008,0.062-0.01,0.093c-0.003,0.021-0.005,0.043-0.007,0.064c-0.004,0.032-0.007,0.062-0.009,0.094
				c-0.005,0.032-0.007,0.061-0.01,0.093c-0.005,0.031-0.008,0.062-0.011,0.093c-0.004,0.03-0.008,0.061-0.011,0.092
				c-0.005,0.03-0.009,0.061-0.012,0.091c-0.003,0.024-0.006,0.047-0.008,0.07c-0.001,0.008-0.003,0.013-0.004,0.022
				c-0.004,0.023-0.005,0.046-0.007,0.07c-0.003,0.015-0.006,0.028-0.008,0.043c-0.002,0.016-0.002,0.031-0.004,0.047
				c-0.004,0.023-0.008,0.045-0.011,0.068c-0.001,0.008-0.001,0.015-0.001,0.023c-0.005,0.024-0.009,0.051-0.012,0.077
				c-0.006,0.029-0.009,0.059-0.013,0.09c-0.005,0.029-0.01,0.058-0.013,0.089c-0.006,0.028-0.011,0.057-0.014,0.086
				c-0.005,0.029-0.012,0.058-0.015,0.087c-0.006,0.028-0.01,0.058-0.013,0.087c-0.006,0.028-0.011,0.058-0.015,0.086
				c-0.007,0.028-0.012,0.056-0.016,0.085c-0.007,0.03-0.013,0.061-0.017,0.092c-0.006,0.028-0.011,0.055-0.015,0.084
				c-0.006,0.028-0.012,0.056-0.016,0.084c-0.007,0.026-0.013,0.054-0.017,0.082c-0.008,0.032-0.014,0.064-0.02,0.097
				c-0.007,0.026-0.012,0.053-0.017,0.08c-0.007,0.027-0.013,0.053-0.018,0.08c-0.008,0.032-0.016,0.063-0.022,0.096
				c-0.007,0.027-0.013,0.054-0.018,0.082c-0.008,0.026-0.014,0.052-0.019,0.078c-0.009,0.03-0.017,0.06-0.023,0.092
				c-0.009,0.028-0.015,0.056-0.021,0.085c-0.008,0.025-0.015,0.05-0.02,0.077c-0.01,0.029-0.018,0.059-0.025,0.09
				c-0.009,0.028-0.016,0.056-0.023,0.085c-0.008,0.024-0.015,0.05-0.022,0.076c-0.01,0.029-0.019,0.059-0.027,0.09
				c-0.01,0.028-0.018,0.056-0.025,0.084C4.008,13.459,4,13.484,3.993,13.509c-0.011,0.03-0.021,0.059-0.029,0.09
				c-0.01,0.028-0.019,0.055-0.027,0.084c-0.009,0.025-0.017,0.05-0.024,0.075c-0.012,0.029-0.022,0.058-0.031,0.087
				c-0.011,0.028-0.02,0.057-0.029,0.085c-0.01,0.025-0.019,0.05-0.027,0.076c-0.012,0.028-0.022,0.056-0.03,0.084
				c-0.012,0.029-0.022,0.059-0.032,0.088c-0.011,0.025-0.02,0.051-0.029,0.077c-0.011,0.025-0.022,0.051-0.031,0.077
				c-0.014,0.031-0.025,0.061-0.035,0.093c-0.011,0.025-0.021,0.052-0.03,0.078c-0.012,0.025-0.023,0.051-0.032,0.079
				c-0.013,0.026-0.025,0.054-0.035,0.083c-0.013,0.027-0.023,0.055-0.033,0.083c-0.013,0.026-0.023,0.053-0.033,0.079
				c-0.013,0.027-0.025,0.054-0.035,0.081c-0.013,0.027-0.025,0.054-0.036,0.081c-0.013,0.027-0.023,0.054-0.034,0.082
				c-0.013,0.026-0.024,0.054-0.036,0.082c-0.013,0.027-0.026,0.054-0.037,0.081c-0.012,0.024-0.024,0.05-0.034,0.073
				c0,0.001,0,0.001,0,0.001c-0.001,0.003-0.003,0.006-0.004,0.009c-0.012,0.024-0.023,0.048-0.033,0.072
				c-0.014,0.027-0.026,0.055-0.038,0.083c-0.014,0.028-0.027,0.055-0.039,0.083c-0.014,0.028-0.028,0.056-0.04,0.084
				c-0.01,0.021-0.021,0.041-0.03,0.063c-0.001,0.002-0.002,0.004-0.003,0.006c-0.014,0.025-0.025,0.051-0.037,0.077
				c-0.004,0.008-0.009,0.016-0.014,0.024c-0.01,0.02-0.018,0.04-0.027,0.059c-0.008,0.014-0.016,0.029-0.024,0.043
				c-0.006,0.014-0.012,0.027-0.017,0.041c-0.011,0.021-0.023,0.04-0.033,0.061c-0.003,0.008-0.006,0.015-0.009,0.023
				c-0.014,0.027-0.029,0.052-0.041,0.079c-0.001,0.003-0.001,0.004-0.002,0.007c-0.01,0.016-0.018,0.035-0.027,0.053
				c-0.015,0.026-0.029,0.055-0.042,0.084c-0.015,0.027-0.03,0.056-0.044,0.084c-0.015,0.028-0.03,0.056-0.044,0.085
				c-0.015,0.028-0.031,0.056-0.044,0.085c-0.015,0.028-0.031,0.055-0.045,0.084c-0.008,0.014-0.016,0.029-0.023,0.044
				c-0.016,0.027-0.03,0.056-0.044,0.084c-0.016,0.028-0.03,0.056-0.045,0.085c-0.016,0.028-0.031,0.056-0.045,0.084
				c-0.016,0.028-0.032,0.057-0.046,0.085c-0.016,0.028-0.032,0.056-0.046,0.085c-0.016,0.028-0.033,0.056-0.047,0.085
				c-0.006,0.011-0.012,0.022-0.018,0.032c-0.003,0.006-0.005,0.01-0.008,0.015c-0.007,0.013-0.015,0.025-0.021,0.039
				c-0.005,0.01-0.011,0.019-0.016,0.03c-0.016,0.028-0.031,0.057-0.046,0.084c-0.016,0.028-0.031,0.057-0.046,0.085
				c-0.016,0.028-0.032,0.055-0.047,0.085c-0.017,0.028-0.032,0.055-0.047,0.085c-0.017,0.028-0.033,0.056-0.048,0.085
				c-0.017,0.028-0.033,0.056-0.048,0.085C2,17.799,1.983,17.827,1.968,17.856c-0.016,0.029-0.034,0.056-0.048,0.086
				c-0.003,0.004-0.005,0.009-0.008,0.014c-0.017,0.027-0.032,0.056-0.048,0.084c-0.016,0.027-0.032,0.055-0.048,0.084
				c-0.017,0.027-0.033,0.055-0.048,0.084c-0.018,0.028-0.033,0.055-0.049,0.084c-0.017,0.029-0.033,0.057-0.049,0.085
				c-0.016,0.027-0.033,0.055-0.048,0.085c-0.017,0.028-0.034,0.056-0.05,0.085c-0.017,0.028-0.034,0.056-0.049,0.084
				c-0.017,0.028-0.034,0.056-0.049,0.085c-0.017,0.028-0.034,0.056-0.05,0.085c-0.016,0.027-0.033,0.053-0.048,0.08
				c-0.016,0.025-0.03,0.053-0.046,0.08c-0.018,0.027-0.033,0.055-0.049,0.083C1.265,19.072,1.25,19.1,1.234,19.129
				c-0.017,0.027-0.033,0.056-0.049,0.084c-0.017,0.028-0.033,0.055-0.05,0.084c-0.017,0.028-0.033,0.056-0.05,0.084
				c-0.017,0.028-0.034,0.055-0.05,0.084c-0.017,0.028-0.033,0.056-0.05,0.084c-0.017,0.028-0.034,0.055-0.05,0.084
				c-0.017,0.028-0.034,0.056-0.05,0.084c-0.017,0.029-0.034,0.055-0.05,0.085c-0.017,0.028-0.035,0.055-0.05,0.085
				c-0.017,0.028-0.035,0.055-0.05,0.084c-0.017,0.028-0.035,0.056-0.051,0.085c-0.218,0.368-0.345,0.797-0.345,1.256
				c0,1.366,1.108,2.473,2.473,2.473c1.366,0,2.474-1.108,2.474-2.473c0-0.005-0.001-0.01-0.001-0.016
				c0.001-0.021,0.004-0.042,0.004-0.064c0-0.007-0.001-0.013-0.001-0.019c0.001-0.021,0.004-0.041,0.004-0.061
				c0-0.008-0.001-0.015-0.001-0.023c0.001-0.019,0.003-0.038,0.003-0.057c0-0.008-0.001-0.017-0.001-0.026
				c0.001-0.017,0.003-0.036,0.004-0.054c0-0.009-0.001-0.02-0.001-0.029c0.001-0.018,0.004-0.033,0.004-0.05
				c0-0.012-0.001-0.023-0.001-0.034c0.001-0.016,0.003-0.032,0.004-0.046c0-0.013-0.001-0.025-0.001-0.038
				c0.001-0.014,0.003-0.027,0.004-0.042c0-0.014-0.001-0.027-0.001-0.041c0.001-0.013,0.003-0.025,0.003-0.038
				c0.001-0.015-0.001-0.03,0-0.045c0.001-0.012,0.003-0.023,0.004-0.034c0.001-0.017-0.001-0.033,0-0.049
				c0.001-0.01,0.002-0.02,0.003-0.03c0.001-0.017,0-0.035,0-0.054c0-0.008,0.002-0.017,0.003-0.025c0.001-0.019,0-0.038,0-0.057
				c0-0.008,0.002-0.014,0.002-0.021c0.002-0.021,0-0.041,0.001-0.063c0-0.006,0.002-0.012,0.003-0.017
				c0.001-0.023,0-0.044,0.001-0.066c0-0.005,0.001-0.009,0.001-0.013c0.002-0.024,0.001-0.047,0.002-0.07
				c0-0.004,0.001-0.007,0.001-0.009c0.002-0.025,0.001-0.049,0.002-0.075c0-0.001,0-0.003,0.001-0.004
				c0.003-0.03,0.002-0.059,0.003-0.088c0.004-0.053,0.005-0.104,0.006-0.157c0.003-0.042,0.006-0.085,0.006-0.127
				c0.001-0.027,0.004-0.055,0.004-0.082c0.001-0.027,0.004-0.054,0.004-0.082c0.001-0.028,0.004-0.055,0.004-0.083
				c0.001-0.027,0.004-0.055,0.004-0.082c0.001-0.028,0.003-0.055,0.004-0.082c0.001-0.027,0.003-0.055,0.004-0.083
				c0.002-0.028,0.004-0.055,0.004-0.084c0.002-0.027,0.003-0.054,0.005-0.082c0.002-0.027,0.004-0.056,0.005-0.084
				c0.002-0.028,0.003-0.055,0.004-0.082c0.003-0.028,0.004-0.056,0.005-0.084c0.003-0.028,0.003-0.056,0.005-0.084
				C5.4,18.65,5.4,18.622,5.402,18.594c0.004-0.038,0.005-0.075,0.007-0.111c0.005-0.049,0.009-0.097,0.009-0.145
				c0.002-0.027,0.005-0.054,0.005-0.081c0.002-0.027,0.005-0.054,0.005-0.082c0.002-0.027,0.005-0.054,0.005-0.082
				c0.003-0.027,0.005-0.055,0.006-0.082c0.003-0.028,0.005-0.055,0.006-0.082c0.003-0.028,0.005-0.055,0.006-0.083
				c0.003-0.027,0.005-0.054,0.006-0.082c0.003-0.028,0.005-0.055,0.007-0.083c0.003-0.027,0.005-0.054,0.007-0.083
				c0.004-0.028,0.005-0.056,0.006-0.083c0.006-0.043,0.009-0.087,0.012-0.13c0.003-0.033,0.007-0.067,0.009-0.099
				c0.003-0.027,0.006-0.055,0.007-0.082c0.003-0.027,0.006-0.054,0.007-0.082c0.003-0.028,0.007-0.054,0.008-0.082
				c0.004-0.027,0.006-0.054,0.008-0.082c0.004-0.027,0.006-0.054,0.008-0.082c0.004-0.028,0.007-0.054,0.009-0.083
				c0.004-0.027,0.006-0.055,0.009-0.082c0.006-0.038,0.01-0.077,0.013-0.115c0.005-0.033,0.009-0.066,0.012-0.099
				c0.004-0.027,0.007-0.054,0.009-0.081c0.004-0.028,0.008-0.055,0.01-0.082c0.004-0.027,0.007-0.054,0.01-0.081
				c0.004-0.027,0.008-0.056,0.01-0.083c0.005-0.027,0.008-0.053,0.011-0.081c0.005-0.028,0.008-0.054,0.012-0.083
				c0.008-0.04,0.014-0.081,0.017-0.121c0.004-0.027,0.009-0.054,0.012-0.082c0.005-0.027,0.01-0.053,0.012-0.081
				c0.005-0.027,0.01-0.054,0.013-0.081c0.006-0.027,0.01-0.054,0.013-0.081c0.006-0.027,0.01-0.054,0.014-0.082
				c0.007-0.032,0.013-0.065,0.017-0.097c0.007-0.032,0.013-0.065,0.017-0.099c0.006-0.027,0.011-0.053,0.015-0.08
				c0.006-0.027,0.011-0.054,0.015-0.081c0.006-0.027,0.011-0.054,0.015-0.081c0.006-0.027,0.012-0.053,0.016-0.081
				c0.008-0.033,0.015-0.065,0.021-0.099c0.008-0.03,0.015-0.06,0.019-0.091c0.007-0.027,0.013-0.054,0.018-0.08
				c0.007-0.028,0.013-0.054,0.018-0.081c0.007-0.027,0.014-0.053,0.019-0.08c0.008-0.027,0.014-0.053,0.02-0.081
				c0.011-0.034,0.02-0.069,0.026-0.106c0.008-0.026,0.015-0.053,0.02-0.079c0.008-0.026,0.015-0.054,0.021-0.08
				c0.008-0.027,0.015-0.053,0.022-0.08c0.008-0.026,0.015-0.053,0.022-0.079c0.011-0.033,0.021-0.068,0.029-0.101
				c0.009-0.027,0.018-0.055,0.024-0.083c0.009-0.026,0.017-0.053,0.024-0.079c0.009-0.027,0.017-0.053,0.024-0.079
				c0.01-0.025,0.017-0.052,0.025-0.078c0.01-0.027,0.019-0.055,0.026-0.083c0.013-0.032,0.024-0.066,0.033-0.1
				c0.01-0.026,0.019-0.052,0.027-0.078c0.01-0.026,0.019-0.051,0.027-0.077c0.01-0.026,0.019-0.052,0.028-0.078
				c0.011-0.025,0.019-0.051,0.028-0.076c0.014-0.035,0.028-0.069,0.039-0.106c0.01-0.025,0.02-0.05,0.029-0.077
				c0.011-0.024,0.021-0.05,0.03-0.077c0.011-0.025,0.02-0.05,0.03-0.077c0.011-0.024,0.021-0.05,0.031-0.076
				c0.011-0.025,0.022-0.051,0.031-0.077c0.016-0.034,0.031-0.07,0.044-0.107c0.011-0.024,0.022-0.05,0.031-0.076
				c0.011-0.025,0.023-0.05,0.032-0.075c0.012-0.025,0.023-0.051,0.032-0.076c0.012-0.025,0.023-0.05,0.033-0.075
				c0.012-0.024,0.023-0.05,0.033-0.075c0.015-0.029,0.028-0.06,0.041-0.092c0.015-0.031,0.03-0.062,0.043-0.094
				c0.012-0.025,0.023-0.05,0.034-0.075c0.012-0.024,0.023-0.049,0.034-0.075c0.012-0.024,0.023-0.049,0.034-0.074
				c0.012-0.025,0.024-0.05,0.035-0.074c0.013-0.024,0.024-0.049,0.035-0.074c0.013-0.024,0.024-0.049,0.035-0.073
				c0.022-0.038,0.041-0.079,0.058-0.12c0.013-0.023,0.025-0.049,0.036-0.074c0.013-0.024,0.025-0.049,0.037-0.073
				c0.013-0.024,0.025-0.049,0.037-0.073c0.013-0.024,0.025-0.049,0.037-0.074c0.013-0.024,0.025-0.049,0.037-0.073
				c0.013-0.023,0.025-0.048,0.037-0.072c0.013-0.023,0.025-0.049,0.037-0.072c0.015-0.028,0.029-0.055,0.043-0.084
				c0.022-0.038,0.043-0.079,0.063-0.12c0.013-0.024,0.026-0.048,0.038-0.074c0.014-0.024,0.027-0.048,0.039-0.073
				c0.013-0.023,0.027-0.047,0.038-0.073c0.014-0.024,0.027-0.047,0.039-0.073c0.014-0.023,0.026-0.047,0.039-0.072
				c0.014-0.024,0.026-0.048,0.039-0.073c0.014-0.023,0.026-0.047,0.039-0.072c0.014-0.023,0.027-0.047,0.039-0.071
				c0.014-0.023,0.026-0.048,0.039-0.072C7.81,9.993,7.824,9.964,7.839,9.936C7.865,9.893,7.89,9.849,7.913,9.803
				c0.014-0.024,0.028-0.046,0.041-0.07C7.954,9.73,7.954,9.728,7.956,9.726c0.012-0.021,0.024-0.04,0.035-0.062
				c0.002-0.003,0.003-0.008,0.005-0.011c0.01-0.019,0.023-0.036,0.033-0.055c0.003-0.006,0.005-0.012,0.008-0.017
				c0.009-0.017,0.021-0.033,0.03-0.05c0.004-0.007,0.007-0.016,0.011-0.023C8.086,9.494,8.096,9.48,8.104,9.464
				c0.005-0.009,0.009-0.019,0.014-0.028c0.008-0.013,0.017-0.025,0.024-0.038c0.006-0.01,0.01-0.023,0.016-0.033
				C8.165,9.353,8.173,9.342,8.18,9.331c0.007-0.013,0.013-0.025,0.019-0.039c0.006-0.009,0.013-0.018,0.018-0.028
				C8.226,9.25,8.232,9.235,8.24,9.22C8.245,9.213,8.25,9.205,8.255,9.198C8.264,9.182,8.272,9.165,8.281,9.15
				C8.285,9.142,8.289,9.136,8.293,9.13c0.011-0.017,0.018-0.036,0.028-0.052c0.003-0.006,0.007-0.01,0.01-0.015
				c0.011-0.019,0.02-0.037,0.031-0.056c0.003-0.004,0.005-0.007,0.007-0.01c0.012-0.02,0.023-0.041,0.034-0.061
				c0.001-0.003,0.003-0.004,0.004-0.006c0.014-0.021,0.024-0.044,0.037-0.065c0-0.001,0.001-0.001,0.001-0.002
				C8.465,8.822,8.485,8.782,8.506,8.744"/>
			
				<linearGradient id="SVGID_00000025421420076021754080000012767019592531222436_" gradientUnits="userSpaceOnUse" x1="24.7908" y1="716.5381" x2="15.7056" y2="705.7733" gradientTransform="matrix(1 0 0 1 -8.3599 -699.3351)">
				<stop  offset="0" style="stop-color:#FF7300"/>
				<stop  offset="1" style="stop-color:#FFC516"/>
			</linearGradient>
			<path fill="url(#SVGID_00000025421420076021754080000012767019592531222436_)" d="M17.663,19.12
				c-0.043-0.06-0.089-0.118-0.138-0.175c-0.044-0.059-0.091-0.118-0.14-0.175c-0.043-0.059-0.089-0.117-0.137-0.173
				c-0.042-0.059-0.087-0.116-0.134-0.171c-0.042-0.059-0.086-0.115-0.132-0.17c-0.041-0.058-0.084-0.114-0.13-0.168
				c-0.042-0.061-0.088-0.121-0.136-0.177c-0.045-0.066-0.093-0.128-0.145-0.188c-0.043-0.062-0.089-0.122-0.138-0.18
				c-0.039-0.057-0.081-0.112-0.126-0.164c-0.038-0.055-0.079-0.11-0.122-0.161c-0.042-0.065-0.089-0.125-0.139-0.184
				c-0.043-0.066-0.09-0.128-0.14-0.187c-0.041-0.062-0.085-0.122-0.133-0.178c-0.035-0.054-0.074-0.106-0.114-0.155
				c-0.042-0.066-0.089-0.128-0.138-0.187c-0.041-0.066-0.086-0.127-0.135-0.186c-0.037-0.057-0.076-0.113-0.118-0.165
				c-0.039-0.064-0.083-0.125-0.13-0.182c-0.039-0.066-0.082-0.127-0.13-0.185c-0.036-0.061-0.075-0.118-0.118-0.172
				c-0.038-0.065-0.08-0.126-0.127-0.184c-0.037-0.064-0.076-0.125-0.121-0.183c-0.035-0.062-0.075-0.122-0.119-0.177
				c-0.008-0.016-0.016-0.033-0.025-0.047c-0.028-0.047-0.058-0.09-0.09-0.132c-0.02-0.036-0.04-0.072-0.062-0.107
				c-0.017-0.026-0.036-0.051-0.056-0.076c-0.029-0.056-0.06-0.111-0.097-0.162c-0.005-0.007-0.01-0.012-0.014-0.017
				c-0.032-0.065-0.07-0.127-0.113-0.186c-0.031-0.065-0.068-0.129-0.11-0.189c-0.029-0.061-0.063-0.121-0.102-0.179
				c-0.03-0.069-0.066-0.135-0.11-0.198c-0.027-0.065-0.061-0.127-0.1-0.186c-0.026-0.065-0.058-0.127-0.096-0.187
				c-0.026-0.067-0.057-0.131-0.095-0.193c-0.025-0.068-0.057-0.134-0.095-0.197c-0.023-0.067-0.053-0.131-0.088-0.192
				c-0.022-0.068-0.05-0.132-0.084-0.193c-0.021-0.068-0.048-0.132-0.081-0.194c-0.021-0.071-0.048-0.141-0.082-0.206
				c-0.02-0.068-0.044-0.135-0.076-0.198c-0.018-0.068-0.042-0.135-0.071-0.198c-0.017-0.069-0.04-0.136-0.069-0.2
				c-0.016-0.074-0.04-0.145-0.071-0.214c-0.015-0.069-0.036-0.135-0.062-0.197c-0.015-0.072-0.036-0.142-0.063-0.209
				c-0.014-0.073-0.034-0.144-0.06-0.211c-0.014-0.07-0.033-0.138-0.057-0.204c-0.013-0.073-0.031-0.144-0.055-0.213
				c-0.001-0.007-0.001-0.014-0.003-0.022c-0.013-0.064-0.03-0.124-0.051-0.184c-0.005-0.029-0.009-0.058-0.015-0.087
				c-0.01-0.041-0.022-0.08-0.034-0.119c-0.008-0.051-0.018-0.102-0.032-0.153c-0.005-0.021-0.013-0.04-0.02-0.06
				c-0.011-0.07-0.024-0.141-0.047-0.211c0-0.002-0.001-0.005-0.002-0.007c-0.01-0.067-0.026-0.133-0.045-0.2
				c-0.01-0.075-0.026-0.148-0.048-0.221C12.135,8.872,12.12,8.8,12.1,8.728c-0.009-0.067-0.023-0.133-0.041-0.2
				c-0.009-0.076-0.025-0.151-0.045-0.225c-0.01-0.077-0.023-0.153-0.044-0.23c-0.009-0.062-0.021-0.125-0.036-0.187
				c-0.008-0.073-0.023-0.146-0.041-0.219c-0.009-0.077-0.023-0.154-0.042-0.231c-0.009-0.076-0.022-0.151-0.041-0.227
				c-0.008-0.067-0.02-0.134-0.036-0.2c-0.008-0.069-0.02-0.137-0.035-0.205c-0.008-0.075-0.021-0.148-0.038-0.222
				c-0.008-0.077-0.022-0.155-0.039-0.233c-0.009-0.074-0.022-0.148-0.037-0.222c-0.009-0.07-0.021-0.14-0.036-0.21
				c-0.008-0.07-0.02-0.142-0.035-0.213c-0.008-0.072-0.02-0.144-0.034-0.216c-0.008-0.073-0.019-0.145-0.034-0.217
				c-0.008-0.074-0.019-0.148-0.033-0.22c-0.008-0.075-0.021-0.147-0.036-0.221c-0.008-0.072-0.021-0.145-0.035-0.216
				c-0.008-0.073-0.02-0.145-0.034-0.218c-0.009-0.074-0.02-0.147-0.034-0.22c-0.007-0.064-0.016-0.127-0.028-0.191
				c-0.008-0.081-0.021-0.162-0.036-0.243c-0.008-0.074-0.02-0.148-0.033-0.222c-0.008-0.074-0.02-0.148-0.033-0.222
				c-0.009-0.075-0.019-0.15-0.033-0.224c-0.078-0.679-0.376-1.336-0.897-1.856c-1.223-1.223-3.206-1.223-4.43,0
				c-1.168,1.168-1.22,3.027-0.158,4.257c0.045,0.06,0.093,0.12,0.142,0.177c0.045,0.06,0.092,0.12,0.143,0.177
				C5.996,5.888,6.041,5.945,6.09,6.001c0.043,0.058,0.089,0.115,0.137,0.17c0.038,0.051,0.079,0.099,0.12,0.148
				c0.042,0.058,0.088,0.114,0.135,0.17C6.529,6.555,6.581,6.62,6.635,6.683C6.681,6.747,6.73,6.81,6.783,6.871
				c0.003,0.004,0.007,0.007,0.01,0.01c0.036,0.048,0.07,0.097,0.11,0.142C6.909,7.033,6.918,7.04,6.925,7.047
				c0.032,0.044,0.062,0.087,0.096,0.13c0.012,0.013,0.024,0.025,0.036,0.039c0.028,0.038,0.053,0.077,0.084,0.114
				C7.157,7.349,7.174,7.366,7.19,7.385c0.023,0.032,0.045,0.067,0.07,0.098c0.02,0.025,0.042,0.047,0.062,0.071
				C7.342,7.581,7.36,7.609,7.38,7.637c0.024,0.031,0.051,0.059,0.076,0.088C7.471,7.746,7.484,7.768,7.5,7.79
				c0.028,0.037,0.059,0.072,0.089,0.107c0.01,0.015,0.019,0.031,0.03,0.045C7.652,7.987,7.688,8.028,7.723,8.07
				c0.006,0.008,0.01,0.017,0.016,0.025c0.037,0.052,0.076,0.101,0.117,0.148c0.001,0.003,0.001,0.005,0.003,0.006
				c0.045,0.066,0.094,0.127,0.144,0.186c0.041,0.06,0.085,0.116,0.131,0.17c0.041,0.061,0.085,0.118,0.131,0.173
				C8.306,8.839,8.35,8.897,8.396,8.952C8.437,9.014,8.48,9.073,8.527,9.128c0.04,0.062,0.084,0.122,0.131,0.177
				C8.697,9.366,8.74,9.424,8.785,9.479c0.04,0.063,0.084,0.12,0.13,0.177c0.04,0.062,0.084,0.121,0.13,0.177
				c0.039,0.063,0.082,0.124,0.129,0.18c0.039,0.064,0.081,0.125,0.128,0.182c0.036,0.059,0.075,0.115,0.117,0.168
				c0.038,0.064,0.08,0.122,0.126,0.18c0.038,0.066,0.08,0.127,0.126,0.185c0.036,0.064,0.076,0.125,0.121,0.181
				c0.033,0.061,0.071,0.117,0.113,0.172c0.035,0.067,0.077,0.128,0.122,0.187c0.034,0.066,0.074,0.129,0.118,0.188
				c0.032,0.061,0.068,0.12,0.108,0.175c0.033,0.067,0.071,0.13,0.114,0.188c0.032,0.067,0.068,0.13,0.11,0.189
				c0.029,0.063,0.063,0.122,0.102,0.178c0.03,0.07,0.068,0.136,0.11,0.199c0.027,0.063,0.06,0.124,0.098,0.182
				c0.027,0.067,0.06,0.13,0.098,0.191c0.026,0.068,0.058,0.132,0.096,0.194c0.023,0.065,0.054,0.126,0.089,0.187
				c0.023,0.069,0.055,0.137,0.093,0.202c0.022,0.066,0.049,0.128,0.083,0.189c0.022,0.071,0.05,0.141,0.086,0.206
				c0.019,0.066,0.045,0.13,0.076,0.191c0.019,0.069,0.045,0.138,0.077,0.203c0.018,0.069,0.042,0.136,0.073,0.201
				c0.016,0.068,0.039,0.134,0.068,0.198c0.016,0.073,0.04,0.144,0.07,0.214c0.015,0.066,0.035,0.131,0.061,0.195
				c0.015,0.071,0.036,0.141,0.064,0.209c0.014,0.071,0.033,0.142,0.06,0.211c0.013,0.067,0.031,0.133,0.054,0.197
				c0.012,0.073,0.032,0.145,0.058,0.215c0.013,0.073,0.029,0.145,0.054,0.217c0.012,0.067,0.028,0.133,0.049,0.199
				c0.011,0.071,0.029,0.142,0.051,0.212c0.011,0.073,0.027,0.145,0.05,0.218c0.01,0.072,0.025,0.145,0.047,0.217
				c0.009,0.067,0.024,0.133,0.043,0.2c0.01,0.071,0.027,0.145,0.047,0.216c0.01,0.073,0.025,0.145,0.045,0.217
				c0.009,0.071,0.023,0.143,0.042,0.215c0.01,0.072,0.022,0.143,0.041,0.215c0.008,0.066,0.02,0.131,0.036,0.197
				c0.002,0.006,0.004,0.012,0.006,0.018c0.007,0.055,0.016,0.112,0.028,0.168c0.004,0.017,0.009,0.032,0.013,0.049
				c0.006,0.046,0.011,0.092,0.021,0.137c0.005,0.027,0.014,0.053,0.02,0.08c0.004,0.035,0.007,0.07,0.014,0.106
				c0.006,0.037,0.016,0.072,0.025,0.109c0.003,0.025,0.004,0.052,0.008,0.077c0.008,0.046,0.019,0.091,0.029,0.136
				c0.002,0.016,0.002,0.032,0.004,0.049c0.008,0.056,0.02,0.11,0.032,0.164c0.001,0.007,0,0.015,0.001,0.023
				c0.009,0.073,0.023,0.145,0.039,0.216c0.009,0.072,0.021,0.145,0.037,0.215c0.009,0.073,0.021,0.145,0.037,0.216
				c0.009,0.072,0.021,0.145,0.036,0.214c0.008,0.072,0.02,0.143,0.035,0.214c0.008,0.072,0.02,0.143,0.034,0.213
				c0.008,0.071,0.02,0.142,0.034,0.212c0.007,0.068,0.018,0.134,0.031,0.2c0.008,0.081,0.02,0.16,0.035,0.238
				c0.147,1.339,1.289,2.375,2.664,2.36c1.465-0.014,2.642-1.214,2.627-2.679C18.299,20.172,18.058,19.577,17.663,19.12"/>
			
				<linearGradient id="SVGID_00000067924668602793614100000008365998974090864814_" gradientUnits="userSpaceOnUse" x1="29.495" y1="710.8643" x2="22.6045" y2="718.5525" gradientTransform="matrix(1 0 0 1 -8.3599 -699.3351)">
				<stop  offset="0" style="stop-color:#6E0097"/>
				<stop  offset="1" style="stop-color:#FF7300"/>
			</linearGradient>
			<path fill="url(#SVGID_00000067924668602793614100000008365998974090864814_)" d="M24.509,11.597
				c0.026-0.021,0.052-0.042,0.077-0.063c0.026-0.021,0.052-0.042,0.077-0.063c0.026-0.022,0.052-0.042,0.078-0.063
				c0.026-0.02,0.052-0.041,0.077-0.063c0.027-0.02,0.053-0.041,0.078-0.063c0.026-0.022,0.053-0.042,0.079-0.064
				c0.026-0.021,0.052-0.041,0.078-0.064c0.027-0.021,0.053-0.042,0.079-0.063c0.005-0.004,0.01-0.007,0.014-0.012
				c0.016-0.013,0.032-0.026,0.048-0.039c0.006-0.004,0.011-0.009,0.017-0.013c0.004-0.004,0.008-0.007,0.012-0.011
				c0.027-0.02,0.053-0.041,0.078-0.062c0.026-0.02,0.052-0.042,0.078-0.063c0.026-0.02,0.053-0.041,0.078-0.063
				c0.026-0.021,0.052-0.041,0.078-0.064c0.026-0.02,0.053-0.041,0.078-0.062c0.026-0.021,0.053-0.042,0.079-0.064
				c0.121-0.095,0.238-0.196,0.35-0.308c1.552-1.541,1.56-4.048,0.018-5.6c-1.542-1.551-4.049-1.56-5.601-0.018
				c-0.681,0.677-1.065,1.54-1.151,2.426c-0.003,0.029-0.007,0.058-0.01,0.087c-0.003,0.029-0.007,0.058-0.01,0.086
				C19.287,7.34,19.283,7.37,19.28,7.399c-0.004,0.028-0.007,0.057-0.01,0.086c-0.004,0.03-0.008,0.059-0.011,0.087
				c-0.004,0.029-0.007,0.059-0.01,0.088c-0.004,0.028-0.008,0.058-0.011,0.087c-0.004,0.028-0.007,0.058-0.011,0.087
				c-0.004,0.029-0.007,0.059-0.011,0.087c-0.004,0.029-0.007,0.058-0.011,0.087c-0.004,0.029-0.007,0.058-0.011,0.088
				c-0.004,0.029-0.007,0.059-0.011,0.088c-0.007,0.047-0.013,0.094-0.017,0.141c-0.005,0.036-0.01,0.073-0.014,0.11
				c-0.004,0.029-0.008,0.057-0.011,0.086c-0.004,0.029-0.008,0.057-0.011,0.086c-0.004,0.029-0.008,0.058-0.011,0.086
				c-0.004,0.029-0.008,0.058-0.011,0.087c-0.004,0.028-0.008,0.058-0.011,0.086c-0.004,0.029-0.008,0.058-0.012,0.087
				c-0.004,0.029-0.008,0.057-0.011,0.086c-0.004,0.03-0.008,0.059-0.012,0.088c-0.004,0.029-0.008,0.058-0.012,0.087
				c-0.004,0.029-0.008,0.058-0.012,0.087c-0.008,0.048-0.014,0.096-0.019,0.145c-0.004,0.028-0.008,0.057-0.012,0.086
				c-0.004,0.029-0.008,0.058-0.012,0.086c-0.004,0.029-0.009,0.058-0.012,0.086c-0.005,0.028-0.009,0.058-0.012,0.086
				c-0.005,0.029-0.008,0.058-0.012,0.087c-0.005,0.029-0.008,0.057-0.013,0.087c-0.005,0.03-0.009,0.061-0.013,0.091
				c-0.003,0.017-0.004,0.034-0.007,0.051c0,0.005-0.001,0.011-0.002,0.016c-0.005,0.027-0.008,0.055-0.012,0.083
				c-0.005,0.027-0.008,0.055-0.012,0.084c-0.005,0.027-0.008,0.055-0.012,0.083c-0.007,0.038-0.011,0.075-0.016,0.113
				c-0.009,0.05-0.016,0.101-0.023,0.152c-0.007,0.044-0.016,0.087-0.02,0.13c-0.004,0.027-0.01,0.053-0.013,0.081
				c-0.004,0.027-0.009,0.054-0.013,0.08c-0.004,0.027-0.009,0.054-0.013,0.08c-0.005,0.027-0.01,0.054-0.013,0.081
				c-0.005,0.027-0.01,0.054-0.013,0.081c-0.005,0.026-0.01,0.054-0.014,0.08c-0.005,0.027-0.009,0.054-0.014,0.082
				c-0.005,0.027-0.009,0.054-0.014,0.081c-0.005,0.027-0.009,0.053-0.014,0.081c-0.006,0.027-0.009,0.054-0.014,0.082
				c-0.008,0.037-0.014,0.075-0.02,0.112c-0.01,0.048-0.02,0.095-0.026,0.144c-0.006,0.032-0.014,0.062-0.018,0.094
				c-0.005,0.027-0.011,0.052-0.015,0.078c-0.006,0.026-0.012,0.052-0.016,0.079c-0.005,0.026-0.012,0.053-0.015,0.079
				c-0.006,0.026-0.012,0.052-0.016,0.079c-0.007,0.026-0.012,0.053-0.016,0.079c-0.006,0.027-0.012,0.053-0.017,0.079
				c-0.006,0.027-0.011,0.053-0.017,0.08c-0.011,0.042-0.019,0.085-0.027,0.128c-0.009,0.038-0.019,0.075-0.026,0.114
				c-0.006,0.025-0.013,0.051-0.018,0.077c-0.006,0.025-0.013,0.052-0.018,0.077c-0.007,0.026-0.013,0.052-0.019,0.077
				c-0.007,0.026-0.013,0.052-0.019,0.078c-0.007,0.026-0.014,0.053-0.02,0.079c-0.008,0.027-0.015,0.055-0.022,0.084
				c-0.014,0.042-0.025,0.086-0.034,0.13c-0.008,0.028-0.016,0.055-0.023,0.084c-0.008,0.024-0.015,0.05-0.021,0.075
				c-0.008,0.025-0.015,0.051-0.022,0.076c-0.008,0.026-0.016,0.051-0.023,0.076c-0.009,0.025-0.016,0.05-0.023,0.077
				c-0.012,0.035-0.023,0.07-0.033,0.106c-0.012,0.032-0.023,0.066-0.032,0.1c-0.008,0.024-0.018,0.049-0.024,0.074
				c-0.01,0.024-0.018,0.049-0.026,0.073c-0.009,0.025-0.018,0.049-0.026,0.075c-0.01,0.024-0.018,0.049-0.027,0.074
				c-0.016,0.037-0.03,0.074-0.042,0.113c-0.011,0.026-0.022,0.052-0.032,0.08c-0.01,0.023-0.02,0.047-0.03,0.072
				c-0.011,0.024-0.02,0.048-0.03,0.072c-0.012,0.023-0.022,0.047-0.031,0.071c-0.016,0.031-0.03,0.064-0.043,0.096
				c-0.015,0.029-0.029,0.059-0.042,0.089c-0.011,0.023-0.023,0.046-0.033,0.07c-0.012,0.023-0.023,0.046-0.034,0.069
				c-0.013,0.023-0.024,0.046-0.035,0.069c-0.017,0.029-0.032,0.059-0.047,0.089c-0.016,0.027-0.032,0.054-0.047,0.083
				c-0.001,0.003-0.002,0.004-0.003,0.007c-0.009,0.016-0.02,0.03-0.029,0.047c-0.004,0.007-0.006,0.014-0.01,0.021
				c-0.007,0.011-0.015,0.022-0.022,0.033c-0.006,0.012-0.011,0.023-0.017,0.034c-0.004,0.007-0.009,0.013-0.014,0.02
				c-0.01,0.015-0.017,0.031-0.026,0.046c-0.001,0.003-0.004,0.005-0.005,0.007c-0.017,0.025-0.031,0.05-0.046,0.076
				c-0.02,0.03-0.04,0.059-0.058,0.09c-0.015,0.022-0.029,0.043-0.043,0.066c-0.015,0.021-0.03,0.042-0.043,0.065
				c-0.016,0.02-0.03,0.042-0.044,0.064c-0.018,0.022-0.034,0.047-0.05,0.07c-0.025,0.032-0.049,0.064-0.071,0.097
				c-0.016,0.02-0.032,0.041-0.047,0.063c-0.016,0.02-0.032,0.04-0.047,0.061c-0.016,0.02-0.033,0.04-0.048,0.062
				c-0.017,0.02-0.033,0.041-0.048,0.061c-0.024,0.028-0.047,0.056-0.07,0.086c-0.022,0.025-0.045,0.052-0.066,0.079
				c-0.017,0.02-0.035,0.04-0.051,0.061c-0.017,0.02-0.035,0.039-0.051,0.059c-0.018,0.02-0.035,0.039-0.052,0.059
				c-0.018,0.019-0.035,0.039-0.052,0.058c-0.024,0.025-0.047,0.051-0.069,0.078c-0.029,0.029-0.056,0.058-0.082,0.088
				c-0.018,0.02-0.037,0.039-0.055,0.059c-0.018,0.019-0.037,0.038-0.054,0.058c-0.019,0.019-0.037,0.038-0.055,0.057
				c-0.019,0.019-0.037,0.038-0.055,0.057c-0.02,0.019-0.037,0.038-0.056,0.057c-0.024,0.023-0.045,0.046-0.067,0.069
				c-0.034,0.031-0.067,0.064-0.098,0.097c-0.021,0.02-0.042,0.039-0.062,0.061c-0.02,0.019-0.039,0.037-0.058,0.057
				c-0.02,0.018-0.039,0.037-0.058,0.056c-0.02,0.019-0.039,0.037-0.058,0.056c-0.02,0.018-0.039,0.037-0.058,0.055
				c-0.02,0.018-0.039,0.037-0.058,0.055c-0.02,0.017-0.039,0.037-0.058,0.054c-0.029,0.024-0.055,0.051-0.082,0.077
				c-0.037,0.032-0.073,0.065-0.107,0.099c-0.022,0.02-0.045,0.04-0.066,0.061c-0.02,0.019-0.041,0.036-0.061,0.056
				c-0.02,0.018-0.041,0.036-0.061,0.055c-0.021,0.018-0.041,0.036-0.061,0.054c-0.021,0.018-0.041,0.037-0.061,0.055
				c-0.021,0.017-0.041,0.036-0.06,0.054C15,18.119,14.98,18.138,14.96,18.155c-0.021,0.017-0.04,0.036-0.061,0.053
				c-0.021,0.018-0.04,0.037-0.06,0.054c-0.022,0.018-0.042,0.037-0.063,0.056c-0.039,0.031-0.076,0.064-0.112,0.098
				c-0.039,0.033-0.078,0.064-0.114,0.099c-0.021,0.019-0.043,0.036-0.063,0.054c-0.021,0.019-0.043,0.037-0.063,0.055
				c-0.022,0.018-0.043,0.035-0.064,0.054c-0.003,0.002-0.006,0.004-0.008,0.006c-0.001,0.001-0.003,0.003-0.004,0.003
				c-0.013,0.011-0.027,0.022-0.04,0.033c-0.023,0.02-0.047,0.039-0.069,0.059c-0.023,0.019-0.045,0.038-0.067,0.057
				c-0.023,0.019-0.045,0.038-0.066,0.057c-0.023,0.018-0.045,0.038-0.067,0.057c-0.613,0.496-1.006,1.256-1.006,2.106
				c0,1.498,1.215,2.712,2.713,2.712c1.381,0,2.521-1.031,2.69-2.366c0.005-0.032,0.01-0.064,0.014-0.095
				c0.005-0.032,0.01-0.063,0.014-0.095c0.005-0.032,0.01-0.063,0.014-0.094c0.005-0.029,0.009-0.057,0.013-0.086
				c0.004-0.025,0.007-0.052,0.01-0.077c0.006-0.035,0.012-0.07,0.016-0.106c0.006-0.035,0.012-0.069,0.017-0.105
				c0.005-0.035,0.012-0.069,0.016-0.105c0.006-0.034,0.012-0.069,0.017-0.104c0.005-0.032,0.012-0.064,0.016-0.097
				c0.007-0.032,0.01-0.066,0.016-0.099c0.007-0.035,0.012-0.07,0.017-0.104c0.007-0.036,0.013-0.07,0.018-0.107
				c0.007-0.034,0.013-0.069,0.018-0.104c0.007-0.034,0.014-0.069,0.018-0.104c0.007-0.035,0.014-0.068,0.019-0.103
				c0.001-0.006,0.001-0.01,0.003-0.014c0.002-0.011,0.004-0.021,0.006-0.032c0.003-0.019,0.007-0.038,0.009-0.057
				c0.001-0.005,0.003-0.011,0.004-0.016c0.007-0.035,0.013-0.069,0.019-0.104c0.008-0.034,0.014-0.068,0.02-0.102
				c0.008-0.034,0.014-0.069,0.02-0.103c0.008-0.034,0.015-0.068,0.021-0.101c0.003-0.012,0.005-0.024,0.007-0.036
				c0.003-0.011,0.005-0.023,0.007-0.034c0.002-0.01,0.005-0.02,0.006-0.03c0.003-0.012,0.005-0.025,0.008-0.038
				c0.008-0.033,0.015-0.068,0.021-0.102c0.008-0.033,0.015-0.066,0.021-0.099c0.008-0.034,0.016-0.066,0.022-0.1
				c0.005-0.017,0.008-0.034,0.013-0.053c0.009-0.032,0.015-0.066,0.022-0.099c0.008-0.033,0.016-0.065,0.023-0.097
				c0.008-0.032,0.017-0.064,0.024-0.095c0.006-0.023,0.012-0.044,0.016-0.065c0.009-0.032,0.016-0.063,0.023-0.095
				c0.009-0.03,0.017-0.061,0.024-0.093c0.009-0.03,0.018-0.06,0.025-0.091c0.007-0.024,0.014-0.05,0.02-0.075
				c0.01-0.03,0.017-0.06,0.025-0.09c0.009-0.028,0.019-0.056,0.026-0.086c0.009-0.027,0.017-0.055,0.024-0.082
				c0.009-0.029,0.018-0.058,0.026-0.086c0.009-0.027,0.02-0.054,0.028-0.082c0.01-0.029,0.019-0.058,0.028-0.087
				c0.01-0.026,0.019-0.053,0.027-0.08c0.012-0.028,0.023-0.058,0.033-0.088c0.01-0.027,0.019-0.053,0.028-0.079
				c0.01-0.024,0.02-0.05,0.029-0.075c0.014-0.03,0.024-0.061,0.036-0.094c0.01-0.024,0.02-0.048,0.029-0.073
				c0.014-0.03,0.028-0.062,0.04-0.093c0.011-0.023,0.021-0.047,0.03-0.071c0.013-0.028,0.026-0.055,0.038-0.083
				c0.013-0.026,0.024-0.053,0.035-0.079c0.013-0.024,0.025-0.049,0.037-0.074c0.015-0.028,0.028-0.056,0.041-0.086
				c0.012-0.022,0.024-0.043,0.035-0.066c0.017-0.028,0.032-0.059,0.046-0.088c0.007-0.012,0.015-0.024,0.022-0.037
				c0.005-0.009,0.008-0.018,0.013-0.027c0.018-0.029,0.034-0.058,0.049-0.088c0.013-0.02,0.025-0.041,0.037-0.063
				c0.019-0.028,0.037-0.058,0.053-0.089c0.013-0.019,0.025-0.041,0.038-0.063c0.018-0.025,0.036-0.052,0.052-0.08
				c0.015-0.022,0.03-0.046,0.044-0.069c0.017-0.023,0.034-0.047,0.049-0.071c0.018-0.024,0.034-0.05,0.051-0.077
				c0.015-0.02,0.031-0.04,0.045-0.062c0.021-0.026,0.04-0.054,0.059-0.083c0.016-0.02,0.032-0.041,0.047-0.063
				c0.021-0.025,0.041-0.051,0.06-0.078c0.017-0.021,0.033-0.043,0.048-0.065c0.019-0.021,0.036-0.042,0.053-0.065
				c0.021-0.024,0.039-0.049,0.058-0.074c0.019-0.021,0.037-0.043,0.055-0.066c0.02-0.023,0.04-0.045,0.058-0.068
				c0.02-0.022,0.038-0.045,0.056-0.068c0.02-0.022,0.04-0.045,0.059-0.068c0.019-0.02,0.038-0.04,0.056-0.061
				c0.021-0.023,0.04-0.046,0.06-0.069c0.022-0.023,0.043-0.045,0.064-0.069c0.017-0.018,0.035-0.036,0.051-0.054
				c0.023-0.023,0.043-0.047,0.065-0.07c0.023-0.023,0.045-0.047,0.066-0.07c0.023-0.023,0.047-0.046,0.069-0.07
				c0.015-0.015,0.03-0.03,0.045-0.046c0.024-0.023,0.047-0.046,0.069-0.07c0.024-0.023,0.048-0.047,0.071-0.071
				c0.024-0.023,0.049-0.047,0.072-0.071c0.012-0.012,0.024-0.023,0.036-0.035c0.012-0.01,0.023-0.023,0.036-0.034
				c0.001-0.001,0.002-0.002,0.002-0.002c0.012-0.011,0.023-0.023,0.034-0.034c0.026-0.023,0.05-0.047,0.074-0.071
				c0.026-0.023,0.051-0.047,0.075-0.072c0.026-0.023,0.052-0.047,0.076-0.072c0.008-0.007,0.015-0.014,0.023-0.022
				c0.011-0.009,0.02-0.019,0.03-0.028c0.008-0.007,0.017-0.014,0.024-0.023c0.007-0.007,0.014-0.014,0.022-0.02
				c0.026-0.023,0.051-0.047,0.076-0.071c0.026-0.023,0.052-0.047,0.077-0.071c0.027-0.023,0.053-0.047,0.078-0.072
				c0.026-0.023,0.053-0.047,0.079-0.071c0.002-0.003,0.004-0.004,0.006-0.006c0-0.001,0.001-0.001,0.002-0.002
				c0.023-0.022,0.049-0.043,0.072-0.065c0.002-0.002,0.002-0.002,0.004-0.004c0.027-0.023,0.052-0.047,0.078-0.069
				c0.027-0.023,0.053-0.046,0.079-0.07c0.027-0.023,0.053-0.047,0.079-0.07c0.028-0.023,0.054-0.047,0.08-0.07
				c0.028-0.023,0.055-0.047,0.081-0.07c0.028-0.023,0.055-0.046,0.081-0.07c0.024-0.022,0.051-0.042,0.075-0.065
				c0.022-0.018,0.043-0.038,0.064-0.057c0.028-0.023,0.053-0.047,0.081-0.069c0.027-0.023,0.053-0.047,0.081-0.069
				c0.028-0.022,0.054-0.046,0.081-0.069c0.028-0.023,0.055-0.046,0.081-0.069c0.028-0.023,0.055-0.046,0.082-0.069
				c0.027-0.023,0.055-0.046,0.082-0.069c0.001-0.001,0.001-0.002,0.002-0.002c0.037-0.029,0.073-0.059,0.109-0.09
				c0.025-0.02,0.05-0.041,0.074-0.062c0.026-0.02,0.051-0.041,0.075-0.062c0.025-0.021,0.05-0.042,0.075-0.063
				c0.026-0.021,0.051-0.042,0.076-0.064c0.026-0.02,0.052-0.041,0.076-0.063c0.015-0.011,0.028-0.023,0.042-0.036
				c0.004-0.002,0.007-0.004,0.01-0.006c0.023-0.019,0.044-0.038,0.066-0.056c0.007-0.006,0.014-0.01,0.021-0.016
				c0.019-0.015,0.037-0.032,0.055-0.046c0.01-0.008,0.021-0.017,0.032-0.025c0.015-0.012,0.03-0.026,0.045-0.038
				c0.014-0.012,0.028-0.022,0.041-0.033c0.012-0.009,0.023-0.02,0.035-0.03c0.017-0.014,0.035-0.027,0.052-0.041
				c0.008-0.007,0.017-0.015,0.025-0.023c0.021-0.017,0.041-0.032,0.062-0.049c0.005-0.005,0.01-0.008,0.016-0.014
				c0.024-0.02,0.048-0.038,0.071-0.058c0.002-0.002,0.004-0.004,0.006-0.006c0.009-0.009,0.02-0.016,0.029-0.024
				C24.458,11.639,24.483,11.618,24.509,11.597"/>
			
				<linearGradient id="SVGID_00000117669621244058390490000006084187679172837272_" gradientUnits="userSpaceOnUse" x1="31.2311" y1="706.0691" x2="42.0149" y2="723.32" gradientTransform="matrix(1 0 0 1 -8.3599 -699.3351)">
				<stop  offset="0.0221" style="stop-color:#6E0097"/>
				<stop  offset="1" style="stop-color:#FF0009"/>
			</linearGradient>
			<path fill="url(#SVGID_00000117669621244058390490000006084187679172837272_)" d="M31.104,21.001
				c-0.022-0.029-0.045-0.056-0.069-0.084c-0.022-0.028-0.045-0.055-0.069-0.082c-0.022-0.028-0.044-0.056-0.068-0.082
				c-0.017-0.022-0.035-0.043-0.053-0.064c-0.022-0.029-0.045-0.056-0.069-0.083c-0.022-0.028-0.045-0.055-0.068-0.081
				c-0.021-0.028-0.043-0.055-0.066-0.081c-0.021-0.028-0.042-0.055-0.064-0.081c-0.02-0.026-0.04-0.052-0.062-0.076
				c-0.02-0.028-0.043-0.055-0.065-0.082c-0.02-0.027-0.041-0.053-0.063-0.079c-0.02-0.027-0.04-0.054-0.062-0.079
				c-0.02-0.027-0.041-0.054-0.063-0.081c-0.021-0.029-0.043-0.058-0.066-0.085c-0.019-0.027-0.039-0.053-0.06-0.077
				c-0.018-0.026-0.036-0.052-0.056-0.076c-0.022-0.032-0.044-0.063-0.068-0.091c-0.019-0.028-0.039-0.054-0.06-0.08
				c-0.017-0.026-0.035-0.05-0.053-0.074c-0.02-0.031-0.042-0.061-0.065-0.09c-0.019-0.029-0.039-0.057-0.061-0.085
				c-0.015-0.023-0.031-0.048-0.048-0.069c-0.02-0.034-0.042-0.066-0.066-0.095c-0.017-0.028-0.034-0.054-0.053-0.079
				c-0.016-0.028-0.034-0.055-0.053-0.081c-0.003-0.004-0.004-0.008-0.006-0.012c-0.017-0.03-0.035-0.057-0.054-0.083
				c-0.007-0.013-0.014-0.026-0.022-0.038c-0.007-0.011-0.014-0.02-0.021-0.031c-0.017-0.031-0.035-0.061-0.055-0.09
				c-0.002-0.003-0.004-0.005-0.004-0.006c-0.013-0.024-0.028-0.049-0.043-0.072c-0.017-0.033-0.036-0.065-0.057-0.097
				c-0.013-0.026-0.028-0.051-0.043-0.076c-0.015-0.034-0.034-0.065-0.053-0.097c-0.013-0.027-0.027-0.054-0.043-0.08
				c-0.015-0.032-0.032-0.066-0.05-0.097c-0.013-0.028-0.026-0.054-0.041-0.081c-0.014-0.034-0.029-0.066-0.047-0.098
				c-0.012-0.029-0.025-0.057-0.04-0.083c-0.012-0.032-0.026-0.064-0.042-0.095c-0.011-0.03-0.024-0.059-0.039-0.087
				c-0.011-0.029-0.022-0.058-0.036-0.086c-0.012-0.033-0.025-0.067-0.041-0.099c-0.009-0.029-0.021-0.058-0.033-0.085
				c-0.011-0.035-0.023-0.069-0.038-0.1c-0.008-0.03-0.02-0.058-0.031-0.086c-0.01-0.035-0.022-0.07-0.036-0.104
				c-0.008-0.028-0.018-0.056-0.029-0.085c-0.009-0.035-0.02-0.071-0.033-0.105c-0.008-0.029-0.016-0.056-0.026-0.084
				c-0.008-0.037-0.019-0.073-0.032-0.108c-0.007-0.027-0.015-0.054-0.023-0.081c-0.008-0.038-0.019-0.074-0.031-0.11
				c-0.006-0.029-0.014-0.057-0.022-0.085c-0.007-0.036-0.016-0.069-0.027-0.103c-0.007-0.035-0.015-0.07-0.026-0.104
				c-0.005-0.028-0.012-0.056-0.02-0.083c-0.007-0.038-0.015-0.075-0.025-0.111c-0.007-0.033-0.014-0.067-0.023-0.098
				c-0.005-0.031-0.011-0.061-0.02-0.09c-0.006-0.036-0.012-0.07-0.021-0.104c-0.001-0.003-0.001-0.006-0.001-0.009
				c-0.005-0.032-0.013-0.062-0.021-0.093c-0.003-0.013-0.003-0.026-0.005-0.04c-0.004-0.019-0.009-0.036-0.013-0.054
				c-0.004-0.025-0.007-0.052-0.012-0.077c-0.002-0.007-0.004-0.013-0.006-0.02c-0.004-0.034-0.011-0.069-0.019-0.103
				c-0.005-0.033-0.012-0.066-0.019-0.098c-0.005-0.034-0.011-0.067-0.018-0.101c-0.004-0.034-0.01-0.068-0.017-0.102
				c-0.005-0.035-0.009-0.069-0.017-0.104c-0.004-0.031-0.01-0.061-0.016-0.092c-0.004-0.034-0.01-0.069-0.017-0.104
				c-0.004-0.034-0.009-0.069-0.016-0.104c-0.004-0.036-0.009-0.07-0.016-0.105c-0.004-0.036-0.008-0.071-0.016-0.108
				c-0.003-0.025-0.006-0.052-0.012-0.077c-0.004-0.036-0.009-0.071-0.015-0.106c-0.004-0.036-0.01-0.07-0.016-0.107
				c-0.004-0.035-0.008-0.071-0.014-0.107c-0.004-0.037-0.009-0.072-0.015-0.108c-0.004-0.037-0.008-0.073-0.014-0.11
				c-0.004-0.037-0.008-0.073-0.015-0.11c-0.002-0.018-0.004-0.037-0.007-0.056c-0.004-0.036-0.009-0.072-0.015-0.108
				c-0.004-0.036-0.008-0.072-0.014-0.108c-0.004-0.037-0.008-0.073-0.014-0.11c-0.003-0.037-0.008-0.073-0.013-0.11
				c-0.004-0.036-0.008-0.073-0.014-0.11c-0.004-0.037-0.008-0.074-0.013-0.111c-0.004-0.037-0.007-0.075-0.013-0.111
				c-0.004-0.037-0.008-0.075-0.014-0.111c-0.001-0.009-0.002-0.018-0.003-0.027c-0.001-0.009-0.002-0.019-0.003-0.028
				c-0.003-0.02-0.004-0.038-0.008-0.058c-0.001-0.007-0.002-0.015-0.003-0.023c-0.003-0.037-0.008-0.073-0.012-0.109
				c-0.003-0.038-0.008-0.073-0.013-0.11c-0.003-0.037-0.008-0.074-0.012-0.11c-0.003-0.037-0.008-0.074-0.013-0.111
				c-0.003-0.037-0.008-0.073-0.012-0.11c-0.003-0.038-0.007-0.075-0.012-0.111c-0.003-0.038-0.008-0.074-0.012-0.111
				c-0.004-0.038-0.008-0.075-0.013-0.112c-0.004-0.038-0.007-0.074-0.012-0.113c-0.004-0.037-0.007-0.074-0.012-0.112
				c-0.005-0.037-0.007-0.075-0.013-0.113c-0.004-0.036-0.006-0.073-0.011-0.109c-0.001-0.017-0.004-0.035-0.006-0.053
				c-0.002-0.013-0.002-0.028-0.004-0.041c-0.002-0.037-0.008-0.072-0.011-0.108c-0.003-0.037-0.008-0.072-0.012-0.109
				c-0.002-0.037-0.008-0.074-0.012-0.111c-0.002-0.037-0.007-0.074-0.011-0.11c-0.003-0.037-0.007-0.073-0.011-0.11
				c-0.003-0.032-0.006-0.063-0.009-0.095c-0.004-0.046-0.008-0.09-0.013-0.135c-0.003-0.036-0.007-0.07-0.011-0.106
				c-0.004-0.034-0.007-0.069-0.011-0.105c-0.003-0.036-0.007-0.07-0.01-0.105c-0.003-0.036-0.007-0.07-0.011-0.107
				c-0.003-0.036-0.006-0.071-0.01-0.107c-0.003-0.035-0.006-0.07-0.011-0.106c-0.003-0.037-0.006-0.071-0.01-0.107
				c-0.002-0.024-0.005-0.048-0.007-0.072c-0.003-0.035-0.007-0.07-0.011-0.105c-0.003-0.036-0.007-0.071-0.011-0.106
				c-0.003-0.036-0.007-0.07-0.011-0.106c-0.003-0.035-0.007-0.071-0.01-0.107c-0.003-0.036-0.007-0.07-0.011-0.106
				c-0.003-0.036-0.006-0.07-0.01-0.107c-0.003-0.035-0.006-0.071-0.01-0.106c-0.003-0.037-0.006-0.071-0.01-0.107
				c-0.003-0.036-0.006-0.071-0.01-0.107c-0.003-0.036-0.006-0.071-0.01-0.108c-0.003-0.036-0.006-0.072-0.011-0.107
				c-0.003-0.036-0.006-0.072-0.01-0.108c-0.003-0.036-0.006-0.071-0.01-0.108c-0.004-0.036-0.006-0.072-0.011-0.108
				c-0.001-0.015-0.002-0.031-0.004-0.045c-0.003-0.036-0.006-0.071-0.009-0.107C27.378,8.034,27.374,8,27.371,7.964
				c-0.003-0.036-0.006-0.071-0.01-0.106c-0.003-0.037-0.007-0.072-0.01-0.108c-0.003-0.036-0.006-0.071-0.01-0.107
				c-0.003-0.036-0.006-0.072-0.01-0.108c-0.002-0.035-0.006-0.07-0.01-0.107c-0.003-0.036-0.006-0.072-0.01-0.108
				c-0.003-0.035-0.006-0.071-0.01-0.107c-0.003-0.036-0.007-0.071-0.01-0.107c-0.074-0.913-0.459-1.806-1.157-2.504
				c-1.562-1.562-4.095-1.562-5.656,0c-1.532,1.531-1.561,3.995-0.089,5.561c0.022,0.026,0.046,0.05,0.069,0.075
				c0.022,0.025,0.046,0.05,0.069,0.074c0.022,0.024,0.046,0.049,0.069,0.074c0.022,0.025,0.046,0.049,0.069,0.074
				c0.023,0.025,0.047,0.05,0.069,0.074c0.039,0.045,0.08,0.088,0.122,0.132c0.025,0.027,0.05,0.055,0.076,0.082
				c0.001,0.002,0.002,0.002,0.003,0.003c0.02,0.023,0.041,0.045,0.062,0.068c0.002,0.003,0.004,0.004,0.006,0.006
				c0.02,0.022,0.038,0.043,0.059,0.064c0.004,0.003,0.006,0.006,0.009,0.009c0.019,0.02,0.037,0.041,0.056,0.061
				c0.004,0.004,0.008,0.008,0.012,0.012c0.018,0.019,0.035,0.038,0.053,0.058c0.005,0.005,0.01,0.01,0.015,0.015
				c0.016,0.018,0.033,0.037,0.05,0.055c0.006,0.006,0.012,0.012,0.018,0.019c0.016,0.017,0.031,0.034,0.047,0.052
				c0.008,0.008,0.014,0.014,0.022,0.022c0.015,0.016,0.029,0.032,0.044,0.049c0.008,0.008,0.016,0.016,0.024,0.024
				c0.013,0.015,0.026,0.03,0.04,0.045c0.01,0.01,0.02,0.019,0.029,0.029c0.012,0.014,0.023,0.028,0.037,0.041
				c0.01,0.011,0.021,0.022,0.032,0.033c0.011,0.012,0.022,0.025,0.033,0.037c0.012,0.013,0.023,0.024,0.035,0.037
				c0.01,0.011,0.019,0.023,0.03,0.034c0.012,0.014,0.025,0.027,0.038,0.04c0.009,0.01,0.018,0.02,0.026,0.03
				c0.014,0.015,0.028,0.029,0.042,0.044c0.008,0.008,0.015,0.018,0.023,0.027c0.015,0.016,0.03,0.031,0.045,0.048
				c0.007,0.007,0.013,0.015,0.02,0.023c0.016,0.017,0.033,0.033,0.05,0.051c0.005,0.007,0.01,0.013,0.016,0.019
				c0.017,0.02,0.035,0.037,0.052,0.055c0.005,0.005,0.008,0.01,0.012,0.015c0.018,0.021,0.038,0.04,0.056,0.06
				c0.004,0.003,0.006,0.007,0.009,0.01c0.019,0.023,0.039,0.043,0.06,0.064c0.002,0.002,0.004,0.004,0.005,0.006
				c0.021,0.024,0.042,0.046,0.064,0.069c0,0.001,0.001,0.001,0.001,0.001c0.035,0.041,0.071,0.08,0.108,0.118
				c0.022,0.025,0.044,0.05,0.068,0.074c0.022,0.025,0.044,0.05,0.068,0.073c0.022,0.025,0.044,0.05,0.068,0.074
				c0.022,0.025,0.045,0.051,0.068,0.075c0.022,0.024,0.045,0.049,0.068,0.073c0.023,0.025,0.045,0.05,0.069,0.074
				c0.022,0.026,0.045,0.051,0.068,0.076c0.041,0.046,0.084,0.093,0.128,0.136c0.023,0.024,0.043,0.05,0.066,0.073
				c0.022,0.023,0.042,0.048,0.065,0.07c0.022,0.023,0.042,0.049,0.065,0.071c0.022,0.024,0.041,0.049,0.064,0.071
				c0.022,0.023,0.042,0.048,0.065,0.071c0.022,0.024,0.042,0.048,0.065,0.071c0.021,0.024,0.042,0.048,0.065,0.071
				c0.022,0.024,0.042,0.049,0.064,0.072c0.022,0.024,0.043,0.048,0.065,0.071c0.021,0.025,0.042,0.049,0.065,0.072
				c0.021,0.023,0.042,0.048,0.065,0.072c0.021,0.024,0.043,0.048,0.065,0.072c0.021,0.024,0.043,0.048,0.065,0.072
				c0.022,0.025,0.043,0.048,0.065,0.072c0.021,0.025,0.043,0.049,0.065,0.073c0.021,0.024,0.043,0.049,0.064,0.073
				c0.021,0.024,0.043,0.049,0.065,0.072c0.021,0.025,0.043,0.049,0.065,0.073c0.021,0.025,0.043,0.049,0.065,0.073
				c0.029,0.037,0.061,0.071,0.092,0.105c0.036,0.043,0.071,0.086,0.11,0.124c0.021,0.024,0.041,0.049,0.063,0.072
				c0.021,0.024,0.041,0.049,0.063,0.072c0.02,0.024,0.041,0.049,0.062,0.071c0.021,0.024,0.041,0.049,0.063,0.072
				c0.021,0.025,0.041,0.049,0.063,0.072c0.02,0.024,0.041,0.05,0.063,0.073c0.02,0.025,0.041,0.049,0.063,0.073
				c0.02,0.025,0.041,0.049,0.063,0.073c0.02,0.025,0.041,0.049,0.063,0.073c0.02,0.025,0.041,0.049,0.063,0.074
				c0.02,0.025,0.042,0.049,0.064,0.073c0.025,0.033,0.052,0.063,0.08,0.094c0.029,0.038,0.059,0.073,0.091,0.107
				c0.02,0.025,0.039,0.05,0.061,0.073c0.02,0.024,0.039,0.049,0.061,0.073c0.02,0.025,0.04,0.05,0.062,0.073
				c0.019,0.026,0.04,0.05,0.061,0.074c0.02,0.025,0.04,0.051,0.062,0.074c0.019,0.025,0.04,0.051,0.061,0.074
				c0.019,0.026,0.04,0.052,0.061,0.076c0.023,0.03,0.046,0.059,0.071,0.087c0.025,0.034,0.052,0.067,0.079,0.098
				c0.02,0.025,0.038,0.051,0.06,0.075c0.019,0.025,0.038,0.05,0.059,0.074c0.019,0.026,0.039,0.052,0.06,0.076
				c0.019,0.026,0.038,0.052,0.059,0.076c0.019,0.027,0.038,0.052,0.059,0.077c0.023,0.033,0.048,0.065,0.074,0.096
				c0.019,0.028,0.04,0.056,0.061,0.081c0.018,0.026,0.037,0.052,0.057,0.077c0.019,0.027,0.037,0.053,0.057,0.078
				c0.018,0.027,0.037,0.053,0.057,0.078c0.017,0.027,0.037,0.053,0.057,0.078c0.021,0.034,0.043,0.066,0.068,0.097
				c0.017,0.026,0.036,0.053,0.055,0.078c0.017,0.028,0.036,0.054,0.055,0.08c0.016,0.027,0.035,0.054,0.054,0.081
				c0.019,0.033,0.039,0.064,0.061,0.093c0.016,0.028,0.034,0.055,0.053,0.081c0.016,0.028,0.033,0.055,0.052,0.081
				c0.015,0.029,0.032,0.057,0.051,0.084c0.017,0.031,0.035,0.063,0.055,0.092c0.015,0.028,0.031,0.056,0.049,0.082
				c0.015,0.029,0.031,0.057,0.048,0.085c0.014,0.029,0.03,0.058,0.047,0.085c0.015,0.032,0.032,0.063,0.05,0.093
				c0.014,0.029,0.028,0.057,0.045,0.086c0.013,0.029,0.027,0.058,0.043,0.086c0.013,0.029,0.027,0.06,0.042,0.087
				c0.013,0.032,0.029,0.063,0.045,0.095c0.011,0.029,0.025,0.059,0.04,0.088c0.012,0.029,0.025,0.059,0.039,0.088
				c0.012,0.032,0.025,0.065,0.041,0.097c0.011,0.03,0.023,0.06,0.037,0.089c0.01,0.031,0.022,0.061,0.036,0.09
				c0.009,0.031,0.02,0.061,0.033,0.091c0.01,0.033,0.023,0.067,0.036,0.1c0.009,0.031,0.02,0.06,0.032,0.091
				c0.008,0.031,0.019,0.061,0.03,0.091c0.009,0.034,0.02,0.069,0.032,0.102c0.008,0.032,0.018,0.063,0.03,0.094
				c0.007,0.031,0.017,0.061,0.027,0.092c0.007,0.031,0.016,0.062,0.026,0.093c0.008,0.032,0.016,0.065,0.026,0.096
				c0.007,0.036,0.017,0.07,0.028,0.105c0.006,0.032,0.014,0.062,0.024,0.094c0.006,0.03,0.013,0.061,0.023,0.093
				c0.006,0.03,0.013,0.061,0.021,0.092c0.007,0.04,0.016,0.078,0.027,0.117c0.007,0.031,0.013,0.063,0.022,0.094
				c0.006,0.032,0.012,0.063,0.021,0.094c0.006,0.032,0.011,0.063,0.02,0.094c0.005,0.032,0.011,0.062,0.019,0.094
				c0.005,0.031,0.011,0.062,0.018,0.093c0.006,0.042,0.014,0.085,0.023,0.128c0.001,0.001,0.001,0.002,0.001,0.003
				c0.004,0.026,0.007,0.052,0.014,0.078c0.001,0.006,0.003,0.012,0.004,0.017c0.003,0.022,0.005,0.043,0.01,0.065
				c0.002,0.01,0.005,0.02,0.007,0.029c0.002,0.018,0.004,0.035,0.006,0.052c0.003,0.014,0.007,0.029,0.01,0.043
				c0.002,0.012,0.002,0.025,0.005,0.039c0.003,0.019,0.008,0.037,0.012,0.055c0.001,0.009,0.001,0.018,0.003,0.027
				c0.003,0.023,0.008,0.045,0.013,0.068c0,0.004,0,0.009,0.001,0.013c0.004,0.027,0.009,0.054,0.014,0.08c0,0.001,0,0.002,0,0.002
				c0.005,0.049,0.013,0.097,0.023,0.145c0.004,0.033,0.008,0.065,0.015,0.096c0.004,0.032,0.009,0.064,0.015,0.095
				c0.005,0.032,0.009,0.064,0.014,0.095c0.004,0.032,0.008,0.064,0.014,0.095c0.003,0.032,0.008,0.063,0.014,0.095
				c0.003,0.032,0.008,0.063,0.013,0.095c0.004,0.032,0.009,0.063,0.013,0.095c0.08,0.845,0.79,1.507,1.656,1.507
				c0.919,0,1.663-0.744,1.663-1.664C31.532,21.684,31.369,21.296,31.104,21.001"/>
		</g>
	</g>
</g>
<g id="Isolation_Mode">
</g>
</svg>
